<svg width="32" height="32" viewBox="0 0 32 32" fill="none" xmlns="http://www.w3.org/2000/svg">
<path d="M11.2 16C11.0586 16 10.9229 16.0562 10.8229 16.1562C10.7229 16.2562 10.6667 16.3919 10.6667 16.5333V20.8H21.3334V16.5333C21.3334 16.3919 21.2772 16.2562 21.1771 16.1562C21.0771 16.0562 20.9415 16 20.8 16H11.2Z" fill="white"/>
<path d="M22.4 22.4C22.4 22.2586 22.3438 22.1229 22.2438 22.0229C22.1437 21.9229 22.0081 21.8667 21.8666 21.8667H10.1333C9.99186 21.8667 9.8562 21.9229 9.75618 22.0229C9.65617 22.1229 9.59998 22.2586 9.59998 22.4V22.9334H22.4V22.4Z" fill="white"/>
<path d="M16 12.8001C16.5891 12.8001 17.0667 12.3225 17.0667 11.7334C17.0667 11.1443 16.5891 10.6667 16 10.6667C15.4109 10.6667 14.9333 11.1443 14.9333 11.7334C14.9333 12.3225 15.4109 12.8001 16 12.8001Z" fill="white"/>
<path d="M26.6352 13.3333C26.5129 14.4144 26.0274 15.422 25.2581 16.1913C24.4887 16.9606 23.4811 17.4462 22.4 17.5685V18.6394C23.7647 18.5131 25.0422 17.9136 26.0113 16.9445C26.9803 15.9754 27.5799 14.6979 27.7062 13.3333H26.6352Z" fill="white"/>
<path d="M19.2 4.2666H21.3339V6.39994H19.2V4.2666Z" fill="white"/>
<path d="M4.89171 30.6992C4.94008 30.7718 5.00578 30.8313 5.08288 30.8722C5.15998 30.913 5.24604 30.9341 5.33331 30.9333H26.6666C26.7539 30.9334 26.8398 30.9121 26.9168 30.8712C26.9939 30.8304 27.0598 30.7713 27.1087 30.699C27.1576 30.6268 27.188 30.5437 27.1973 30.457C27.2066 30.3702 27.1946 30.2826 27.1621 30.2016L24.8154 24.3349C24.7758 24.236 24.7074 24.1512 24.6191 24.0915C24.5308 24.0318 24.4266 23.9999 24.32 24H7.67997C7.5733 23.9996 7.469 24.0315 7.3807 24.0913C7.2924 24.1512 7.22421 24.2363 7.18504 24.3355L4.83837 30.2021C4.80532 30.2829 4.79288 30.3706 4.8022 30.4574C4.81151 30.5442 4.84227 30.6273 4.89171 30.6992ZM18.1333 28.8H13.8666C13.7252 28.8 13.5895 28.7438 13.4895 28.6438C13.3895 28.5438 13.3333 28.4081 13.3333 28.2667C13.3333 28.1252 13.3895 27.9896 13.4895 27.8895C13.5895 27.7895 13.7252 27.7333 13.8666 27.7333H18.1333C18.2748 27.7333 18.4104 27.7895 18.5104 27.8895C18.6105 27.9896 18.6666 28.1252 18.6666 28.2667C18.6666 28.4081 18.6105 28.5438 18.5104 28.6438C18.4104 28.7438 18.2748 28.8 18.1333 28.8ZM12.8 25.6H19.2C19.3414 25.6 19.4771 25.6562 19.5771 25.7562C19.6771 25.8562 19.7333 25.9919 19.7333 26.1333C19.7333 26.2748 19.6771 26.4104 19.5771 26.5105C19.4771 26.6105 19.3414 26.6667 19.2 26.6667H12.8C12.6585 26.6667 12.5229 26.6105 12.4229 26.5105C12.3228 26.4104 12.2666 26.2748 12.2666 26.1333C12.2666 25.9919 12.3228 25.8562 12.4229 25.7562C12.5229 25.6562 12.6585 25.6 12.8 25.6Z" fill="white"/>
<path d="M28.2667 11.2H18.0576C18.1586 11.5483 18.1586 11.9182 18.0576 12.2666H28.2667V11.2Z" fill="white"/>
<path d="M22.4 4.82715V5.89808C23.4811 6.02038 24.4887 6.5059 25.2581 7.27523C26.0274 8.04456 26.5129 9.05218 26.6352 10.1333H27.7062C27.5799 8.76863 26.9803 7.49112 26.0113 6.52205C25.0422 5.55298 23.7647 4.95339 22.4 4.82715Z" fill="white"/>
<path d="M3.91945 9.55941C3.97322 9.58927 4.03433 9.60336 4.09574 9.60006C4.15716 9.59676 4.2164 9.5762 4.26665 9.54074C6.22505 8.22021 9.79306 6.47994 18.1333 6.40687V4.25967C9.79145 4.18661 6.22345 2.44634 4.26665 1.12741C4.21647 1.09166 4.15722 1.07079 4.09571 1.06721C4.03419 1.06362 3.97292 1.07746 3.91892 1.10714C3.86213 1.13659 3.81468 1.18128 3.7819 1.23621C3.74911 1.29114 3.73229 1.35412 3.73332 1.41807V9.24848C3.73234 9.31249 3.74924 9.37551 3.78212 9.43044C3.81501 9.48537 3.86257 9.53004 3.91945 9.55941Z" fill="white"/>
</svg>
