<svg width="32" height="32" viewBox="0 0 32 32" fill="none" xmlns="http://www.w3.org/2000/svg">
<path d="M26 30.125H24.8144L24.0788 24.9338C24.56 24.8931 24.9375 24.4913 24.9375 24C24.9375 23.4825 24.5175 23.0625 24 23.0625H7C6.4825 23.0625 6.0625 23.4825 6.0625 24C6.0625 24.4913 6.44 24.8931 6.92125 24.9338L6.18563 30.125H5C4.4825 30.125 4.0625 30.545 4.0625 31.0625C4.0625 31.58 4.4825 32 5 32H26C26.5175 32 26.9375 31.58 26.9375 31.0625C26.9375 30.545 26.5175 30.125 26 30.125ZM17.5 28.4375H13.5C12.9825 28.4375 12.5625 28.0175 12.5625 27.5C12.5625 26.9825 12.9825 26.5625 13.5 26.5625H17.5C18.0175 26.5625 18.4375 26.9825 18.4375 27.5C18.4375 28.0175 18.0175 28.4375 17.5 28.4375Z" fill="white"/>
<path d="M26.9445 0.00166166L17.4445 0.564162C16.9492 0.593412 16.5625 1.00379 16.5625 1.49997V8.21285C14.3569 7.77916 11.9226 8.2731 10.1572 9.74422C7.36691 12.0694 7.35628 15.9216 10.1572 18.2557C10.8558 18.8379 11.6757 19.2782 12.5666 19.5625H9.99997C9.48247 19.5625 9.06247 19.9825 9.06247 20.5V21.1875H21.9375V20.5C21.9375 19.9825 21.5175 19.5625 21 19.5625H17.4333C19.9717 18.7523 21.9375 16.643 21.9375 14V6.49997L27.0493 6.23091C27.5472 6.20472 27.9375 5.79335 27.9375 5.29472V0.937474C27.9375 0.398912 27.4839 -0.0301508 26.9445 0.00166166Z" fill="white"/>
</svg>
