<svg width="48" height="48" viewBox="0 0 48 48" fill="none" xmlns="http://www.w3.org/2000/svg">
<g clip-path="url(#clip0_7156_173)">
<path d="M48 24C48 17.5894 45.5035 11.5625 40.9706 7.02938C36.4375 2.49647 30.4106 0 24 0C17.5894 0 11.5625 2.49647 7.02938 7.02938C2.49647 11.5625 0 17.5894 0 24V25.4062H19.1921C19.0613 24.9598 18.9898 24.4883 18.9898 24C18.9898 21.7259 20.5134 19.8021 22.5932 19.1927V9.13247L20.5441 11.1816L18.5554 9.19284L23.9994 3.74869L29.4435 9.19284L27.4548 11.1816L25.4057 9.13247V19.1927C27.4854 19.8021 29.0092 21.7259 29.0092 24C29.0092 26.7623 26.7618 29.0096 23.9994 29.0096C23.5115 29.0096 23.0401 28.9382 22.5938 28.8075V48H24.0001C24.5007 48 24.9986 47.9829 25.494 47.9528L31.425 35.0158H26.04V32.2033H34.7624V34.4847L28.7839 47.5252C33.3706 46.6024 37.5868 44.3542 40.9705 40.9705C45.5035 36.4375 48 30.4106 48 24ZM44.9681 22.5938V25.4062H39.9994V22.5938H44.9681Z" fill="#871ABB"/>
<path d="M4.51472 45.1742C5.25985 44.2144 6.28013 42.8443 7.60838 40.9464C8.4211 39.7852 9.28266 38.8123 9.28266 36.8754C9.28266 34.4061 7.18669 32.2031 4.61044 32.2031C2.38275 32.2031 0.454691 33.7879 0.0258789 35.9713L2.78569 36.5133C2.95613 35.6454 3.72357 35.0155 4.61054 35.0155C5.61019 35.0155 6.42816 35.8084 6.46875 36.7982C6.46875 37.6638 5.89032 38.4965 5.30438 39.3337C2.22779 43.7294 0.485535 45.5857 0.485535 45.5857L0.476723 47.9998H9.47616L9.48347 45.1873L4.51472 45.1742Z" fill="#871ABB"/>
<path d="M23.9993 26.197C25.2108 26.197 26.1965 25.2114 26.1965 23.9999C26.1965 22.7883 25.2108 21.8027 23.9993 21.8027C22.7877 21.8027 21.8022 22.7883 21.8022 23.9999C21.8022 25.2114 22.7877 26.197 23.9993 26.197Z" fill="#871ABB"/>
<path d="M10.6489 41.2895L11.256 43.8389H16.6771L16.6668 48.0002H19.4793L19.5182 32.2227H15.8516L10.6489 41.2895ZM16.6841 41.0264H14.0425L16.6954 36.4031L16.6841 41.0264Z" fill="#871ABB"/>
</g>
<defs>
<clipPath id="clip0_7156_173">
<rect width="48" height="48" fill="white"/>
</clipPath>
</defs>
</svg>
