<svg width="48" height="48" viewBox="0 0 48 48" fill="none" xmlns="http://www.w3.org/2000/svg">
<path d="M15.5573 22.9178H32.4425C33.6994 22.9206 34.904 23.4211 35.7928 24.3099C36.6816 25.1987 37.1822 26.4033 37.185 27.6602V33.417C39.1389 30.642 40.4866 27.4134 40.4866 23.9752V9.55542C36.3301 8.73399 32.3999 6.95236 28.8852 4.60739C28.8087 4.55489 28.7179 4.52732 28.6251 4.52845H19.3748C19.282 4.52727 19.1911 4.55485 19.1146 4.60739C15.5999 6.95236 11.6697 8.73399 7.51314 9.55542V23.9752C7.51314 27.4135 8.86079 30.6417 10.8148 33.417V27.6602C10.8176 26.4033 11.3182 25.1987 12.207 24.3099C13.0957 23.4212 14.3004 22.9206 15.5573 22.9178ZM23.9999 8.11767C25.3638 8.11765 26.6971 8.52208 27.8311 9.27981C28.9652 10.0375 29.8491 11.1145 30.371 12.3746C30.893 13.6347 31.0296 15.0212 30.7635 16.3589C30.4974 17.6966 29.8406 18.9254 28.8762 19.8898C27.9118 20.8542 26.6831 21.511 25.3454 21.7771C24.0077 22.0432 22.6211 21.9066 21.3611 21.3847C20.101 20.8628 19.024 19.9789 18.2662 18.8448C17.5085 17.7108 17.104 16.3775 17.104 15.0136C17.1042 13.1848 17.8307 11.4308 19.1239 10.1376C20.4171 8.84441 22.171 8.11782 23.9999 8.11767ZM18.4165 15.0136C18.4165 13.9093 18.7439 12.8298 19.3574 11.9116C19.9709 10.9933 20.843 10.2777 21.8632 9.85505C22.8835 9.43242 24.0061 9.32183 25.0892 9.53725C26.1723 9.75268 27.1672 10.2844 27.9481 11.0653C28.729 11.8462 29.2607 12.8411 29.4762 13.9242C29.6916 15.0073 29.5811 16.1299 29.1585 17.1502C28.7358 18.1704 28.0202 19.0425 27.102 19.656C26.1838 20.2695 25.1042 20.5969 23.9999 20.5969C23.2667 20.5969 22.5407 20.4525 21.8632 20.1719C21.1858 19.8914 20.5703 19.4801 20.0518 18.9617C19.5334 18.4432 19.1221 17.8277 18.8415 17.1503C18.5609 16.4729 18.4165 15.7469 18.4164 15.0136H18.4165ZM22.8067 26.8032C22.6187 27.2411 22.5535 27.722 22.618 28.1941C22.6564 28.5038 22.7724 28.7987 22.9553 29.0516C23.1382 29.3044 23.382 29.5068 23.6641 29.6401C24.3223 29.9475 25.0723 29.8681 25.7399 29.6377C25.821 29.6098 25.8959 29.5661 25.9601 29.5093C26.0244 29.4524 26.0768 29.3835 26.1144 29.3064C26.1521 29.2292 26.1741 29.1455 26.1793 29.0598C26.1846 28.9742 26.1729 28.8883 26.145 28.8072C26.117 28.7261 26.0734 28.6513 26.0165 28.587C25.9597 28.5227 25.8907 28.4703 25.8136 28.4327C25.7365 28.3951 25.6527 28.373 25.5671 28.3678C25.4814 28.3626 25.3956 28.3742 25.3145 28.4022C24.9993 28.5108 24.5264 28.5999 24.2176 28.4559C24.0222 28.3647 23.9457 28.1997 23.9149 27.9992C23.8416 27.5198 24.1164 27.0042 24.4154 26.6485C25.4336 26.7521 26.3769 27.2306 27.0619 27.991C27.7469 28.7514 28.1247 29.7393 28.1218 30.7628C28.119 31.7862 27.7357 32.772 27.0465 33.5286C26.3572 34.2851 25.4113 34.7584 24.3925 34.8563C23.3738 34.9542 22.355 34.6699 21.5343 34.0585C20.7135 33.4471 20.1494 32.5524 19.9517 31.5482C19.7539 30.5441 19.9366 29.5023 20.4642 28.6253C20.9918 27.7483 21.8266 27.0989 22.8064 26.8032H22.8067ZM31.1052 44.0222V46.5H16.8946V45.5098H25.1624C25.6494 45.5122 26.132 45.4184 26.5826 45.2338C27.0332 45.0491 27.4428 44.7773 27.788 44.4338C28.1332 44.0903 28.4072 43.682 28.5941 43.2324C28.781 42.7827 28.8772 42.3006 28.8772 41.8136C28.8772 41.3267 28.781 40.8445 28.5941 40.3949C28.4072 39.9452 28.1332 39.5369 27.788 39.1935C27.4428 38.85 27.0332 38.5781 26.5826 38.3935C26.132 38.2088 25.6494 38.115 25.1624 38.1175H20.0605C21.225 37.3344 22.5966 36.9164 23.9999 36.917C25.8827 36.9225 27.6867 37.6729 29.018 39.0042C30.3493 40.3354 31.0997 42.1395 31.1052 44.0222ZM43.552 7.3208V23.9748C43.552 29.3543 40.8861 34.3139 37.185 38.2436V35.5814C39.8654 32.2921 41.7992 28.2899 41.7992 23.9751V9.01111C41.7996 8.85106 41.7414 8.69641 41.6355 8.57636C41.5297 8.45631 41.3835 8.37918 41.2247 8.35955C36.9356 7.59717 32.9239 5.77308 29.3353 3.33136C29.2267 3.25653 29.098 3.2163 28.9661 3.21595H19.0337C18.8831 3.21577 18.7369 3.26726 18.6197 3.36183C15.0337 5.79427 11.0269 7.60917 6.74411 8.36508C6.59194 8.39156 6.45399 8.47086 6.35453 8.58903C6.25507 8.70719 6.20047 8.85666 6.20035 9.01111V23.9752C6.20035 28.29 8.13414 32.2921 10.8145 35.5815V38.2432C7.11348 34.314 4.44751 29.3544 4.44751 23.9749V7.3208C4.44722 7.20436 4.4904 7.092 4.56861 7.00572C4.64681 6.91945 4.75441 6.86549 4.87032 6.85439C10.0977 6.33952 14.6607 4.05492 18.1505 1.58611C18.2292 1.52882 18.3244 1.49862 18.4218 1.50005H29.578C29.6752 1.49877 29.7701 1.52896 29.8487 1.58611C33.3385 4.05492 37.9018 6.33924 43.1289 6.85486C43.2448 6.86588 43.3524 6.91975 43.4307 7.00593C43.5089 7.09211 43.5522 7.20439 43.552 7.3208ZM35.8725 27.6602V46.5H32.4177V44.0222C32.4186 42.9058 32.1954 41.8006 31.7615 40.7719V32.5238C31.7615 32.3498 31.6923 32.1828 31.5693 32.0598C31.4462 31.9367 31.2793 31.8675 31.1052 31.8675C30.9312 31.8675 30.7643 31.9367 30.6412 32.0598C30.5181 32.1828 30.449 32.3498 30.449 32.5238V38.6256C29.2865 37.236 27.7081 36.2569 25.9466 35.8329C27.133 35.3781 28.1227 34.5222 28.7438 33.4138C29.365 32.3054 29.5785 31.0146 29.3472 29.7652C29.1159 28.5159 28.4545 27.387 27.4777 26.5744C26.5009 25.7618 25.2705 25.317 23.9999 25.317C22.7293 25.317 21.4989 25.7618 20.5221 26.5744C19.5453 27.387 18.8839 28.5159 18.6526 29.7652C18.4213 31.0146 18.6348 32.3054 19.256 33.4138C19.8772 34.5222 20.8668 35.3781 22.0532 35.8329C20.2917 36.2569 18.7133 37.236 17.5509 38.6257V32.5238C17.5509 32.3498 17.4817 32.1828 17.3586 32.0598C17.2356 31.9367 17.0687 31.8675 16.8946 31.8675C16.7206 31.8675 16.5536 31.9367 16.4306 32.0598C16.3075 32.1828 16.2384 32.3498 16.2384 32.5238V39.4299H25.1624C25.7946 39.4299 26.4009 39.681 26.8479 40.1281C27.295 40.5751 27.5461 41.1814 27.5461 41.8136C27.5461 42.4458 27.295 43.0521 26.8479 43.4991C26.4009 43.9461 25.7946 44.1973 25.1624 44.1973H15.8773C14.8834 44.1953 13.9307 43.7996 13.2278 43.0968C12.525 42.3939 12.1293 41.4412 12.1273 40.4473V27.6598C12.13 26.7509 12.4922 25.88 13.1349 25.2374C13.7775 24.5947 14.6484 24.2325 15.5573 24.2298H32.4425C33.3514 24.2326 34.2223 24.5949 34.8649 25.2377C35.5076 25.8804 35.8698 26.7513 35.8725 27.6602Z" fill="#871ABB"/>
</svg>
