<svg width="48" height="48" viewBox="0 0 48 48" fill="none" xmlns="http://www.w3.org/2000/svg">
<path d="M16.6577 2.34668L15.6499 3.45414L22.0527 9.27542H2.29053C2.09162 9.27622 1.90118 9.35594 1.76108 9.49714C1.62098 9.63834 1.5427 9.82946 1.54346 10.0284V40.7783C1.54425 40.9762 1.62322 41.1658 1.76315 41.3058C1.90308 41.4457 2.09264 41.5246 2.29053 41.5254H45.7905C45.9894 41.5262 46.1805 41.4478 46.3217 41.3077C46.4629 41.1676 46.5427 40.9772 46.5435 40.7783V10.0284C46.5438 9.92939 46.5246 9.83131 46.4869 9.73979C46.4492 9.64827 46.3938 9.56505 46.3238 9.49506C46.2538 9.42507 46.1706 9.3697 46.0791 9.332C45.9876 9.29429 45.8895 9.27504 45.7905 9.27542H26.5938L32.437 3.43216L31.3735 2.36865L24.4727 9.27542H24.2822L16.6577 2.34668ZM24.0435 14.6207C30.1938 14.6207 35.1939 19.6266 35.1939 25.7769C35.1939 31.9272 30.1938 36.9272 24.0435 36.9272C17.8932 36.9272 12.8931 31.9272 12.8931 25.7769C12.8931 19.6266 17.8932 14.6207 24.0435 14.6207ZM24.0435 16.1206C23.7538 16.1206 23.4696 16.1376 23.1865 16.1632L24.6528 16.812L26.2847 16.3917C25.5647 16.2208 24.8165 16.1206 24.0435 16.1206ZM20.7271 16.7168C19.4189 17.1952 18.2404 17.9396 17.2686 18.898L17.2173 22.837L19.8496 23.9648L23.3535 21.4439L23.7681 18.0601L20.7271 16.7168ZM28.7017 17.3174L25.2783 18.1963L24.8623 21.5273L28.2798 24.0425L31.2856 23.1343L31.772 20.004C30.9517 18.9053 29.9094 17.9834 28.7017 17.3174ZM15.7407 20.8682C15.0845 21.9789 14.6432 23.2296 14.4766 24.5699L15.7085 23.0713L15.7407 20.8682ZM32.9673 22.0986L32.7475 23.5152L33.6235 24.6519C33.5201 23.7577 33.297 22.9008 32.9673 22.0986ZM24.0493 22.793L20.8208 25.1148L21.0449 25.8194L22.0293 28.9102L26.0093 28.9328L27.2603 25.1521L24.0551 22.7937L24.0522 22.7952L24.0493 22.793ZM16.6856 24.2446L14.4692 26.9414C14.6497 28.4454 15.1737 29.8411 15.9619 31.0489L19.2153 31.7784L20.4707 29.8359L20.6611 29.5415L19.3325 25.3784L17.4268 24.561L16.6856 24.2446ZM31.6782 24.5859L28.7295 25.4839L27.3965 29.5108L29.2202 31.6303L32.1016 31.0899C32.8802 29.9097 33.3982 28.5458 33.5957 27.0777L31.6782 24.5859ZM21.8901 30.4043L21.5034 30.999L20.4546 32.6265L22.0454 35.2178C22.6904 35.353 23.3575 35.4259 24.0435 35.4259C24.9332 35.4259 25.791 35.2969 26.6084 35.0729L28.0205 32.5548L26.1997 30.4278L21.8901 30.4043ZM30.5342 32.9106L29.4268 33.1159L28.8525 34.1398C29.4585 33.7913 30.0207 33.3779 30.5342 32.9106ZM17.5981 32.9517C18.2598 33.5462 19.0032 34.0485 19.8115 34.443L19.1055 33.2901L17.5981 32.9517ZM13.5435 43.0167V44.9034C13.5443 45.1013 13.6232 45.2909 13.7631 45.4308C13.9031 45.5708 14.0926 45.6497 14.2905 45.6505H33.7964C33.9943 45.6497 34.1838 45.5708 34.3238 45.4308C34.4637 45.2909 34.5427 45.1013 34.5435 44.9034V43.0167H13.5435Z" fill="#871ABB"/>
</svg>
