<svg width="53" height="53" viewBox="0 0 53 53" fill="none" xmlns="http://www.w3.org/2000/svg">
<path d="M28.55 20.2324C29.3101 20.9661 29.9825 21.9253 30.5327 23.0709C31.0458 22.7838 31.5358 22.4553 32.0018 22.0886C30.9619 21.2683 29.7946 20.6436 28.55 20.2324Z" fill="#871ABB"/>
<path d="M25.4968 19.6963V24.5C26.934 24.4364 28.3328 24.1042 29.6274 23.5254C28.5996 21.3722 27.1397 19.9404 25.4968 19.6963Z" fill="#871ABB"/>
<path d="M25.4968 25.5005V30.4939H31.1505C31.0968 28.2458 30.6894 26.1677 30.0231 24.4434C28.6044 25.0759 27.0714 25.4365 25.4968 25.5005Z" fill="#871ABB"/>
<path d="M24.4969 19.6963C22.8539 19.9404 21.394 21.3723 20.3662 23.5256C21.6614 24.1052 23.0602 24.4373 24.4969 24.5002V19.6963Z" fill="#871ABB"/>
<path d="M19.4608 23.0712C20.0113 21.925 20.6839 20.9651 21.4445 20.2314C20.1997 20.6426 19.032 21.2678 17.9917 22.0886C18.4576 22.4556 18.9479 22.7839 19.4608 23.0712Z" fill="#871ABB"/>
<path d="M19.2475 38.4282C18.6763 38.7659 18.1345 39.1556 17.6245 39.5947C18.7573 40.5699 20.0532 41.301 21.4487 41.7604C20.5823 40.9259 19.8362 39.7885 19.2475 38.4282Z" fill="#871ABB"/>
<path d="M29.8563 37.9545C28.502 37.3105 27.0255 36.943 25.4968 36.876V42.291C27.2659 42.0281 28.8232 40.3888 29.8563 37.9545Z" fill="#871ABB"/>
<path d="M24.4969 35.8755V31.4937H18.8433C18.8916 33.5181 19.2272 35.4036 19.7806 37.0186C21.2484 36.3318 22.845 35.9414 24.4969 35.8755Z" fill="#871ABB"/>
<path d="M24.4969 30.4937V25.5005C22.9228 25.437 21.3896 25.0764 19.9705 24.4434C19.3043 26.1677 18.897 28.2457 18.8433 30.4937H24.4969Z" fill="#871ABB"/>
<path d="M45.3298 4.73486V3.26514C45.3298 3.11377 45.2068 2.99463 45.05 2.99463H43.2706C43.2914 3.08545 43.3264 3.17114 43.3264 3.26807V4.73779C43.3264 5.44385 42.7522 6.01807 42.0466 6.01807H41.95V14.7268L45.3445 16.6294C46.718 17.3999 47.2126 19.144 46.4465 20.5181C46.446 20.519 46.4456 20.52 46.4451 20.522C46.0784 21.168 45.4756 21.6293 44.7903 21.8391V46.6548H45.0999C46.302 46.6548 47.28 47.6284 47.28 48.8247C47.28 49.2603 47.1485 49.6644 46.9276 50.0054H48.0999C48.7507 50.0054 49.28 49.4761 49.28 48.8247C49.28 48.1792 48.7507 47.6548 48.0999 47.6548H47.2903C47.0139 47.6548 46.7903 47.4312 46.7903 47.1548V21.4546C46.7903 21.2036 46.9768 20.9917 47.2258 20.9585C47.7815 20.8862 48.2859 20.5386 48.575 20.0278C49.0715 19.1382 48.7493 18.0024 47.8552 17.5015L44.2058 15.4614C44.0481 15.3726 43.95 15.2056 43.95 15.0249V5.51514C43.95 5.23877 44.1736 5.01514 44.45 5.01514H45.05C45.2043 5.01514 45.3298 4.88916 45.3298 4.73486Z" fill="#871ABB"/>
<path d="M30.7459 38.4287C30.1574 39.7882 29.4116 40.9254 28.5457 41.7596C29.9417 41.3003 31.2374 40.5696 32.3694 39.5953C31.8594 39.1562 31.3174 38.7664 30.7459 38.4287Z" fill="#871ABB"/>
<path d="M5.13451 17.5015C4.69994 17.7446 4.38744 18.1431 4.25365 18.6216C4.12084 19.0991 4.18139 19.5981 4.42504 20.0288C4.71166 20.5396 5.2019 20.8784 5.77026 20.9595C6.18432 21.0229 6.59203 20.9517 6.95531 20.7495L24.7561 10.7778C24.8318 10.7358 24.9163 10.7144 25.0002 10.7144C25.0847 10.7144 25.1687 10.7358 25.2444 10.7778L43.0442 20.7485C43.3923 20.9429 43.8025 21.0356 44.199 20.9634C44.7805 20.8862 45.2844 20.5396 45.574 20.0308C46.071 19.1372 45.7493 18.0024 44.8552 17.5015L25.9055 6.88135C25.3362 6.56494 24.6545 6.56494 24.0832 6.88135L5.13451 17.5015Z" fill="#871ABB"/>
<path d="M24.4969 42.2908V36.8755C22.9685 36.9419 21.4919 37.3093 20.1372 37.9539C21.1702 40.3884 22.7277 42.0278 24.4969 42.2908Z" fill="#871ABB"/>
<path d="M25.4968 31.4937V35.8757C27.1492 35.9423 28.7457 36.3328 30.213 37.0189C30.7665 35.4038 31.1022 33.5183 31.1505 31.4937H25.4968Z" fill="#871ABB"/>
<path d="M17.8435 31.4937H13.6782C13.7992 34.3049 14.925 36.9032 16.8929 38.9072C17.512 38.3647 18.1763 37.8909 18.8791 37.4877C18.2622 35.7424 17.8927 33.7031 17.8435 31.4937Z" fill="#871ABB"/>
<path d="M46.28 48.8247C46.28 48.1792 45.7507 47.6548 45.0999 47.6548H44.2903H5.69995H4.90015C4.24927 47.6548 3.71997 48.1792 3.71997 48.8247C3.71997 49.4761 4.24927 50.0054 4.90015 50.0054H41.45H45.0999C45.7507 50.0054 46.28 49.4761 46.28 48.8247Z" fill="#871ABB"/>
<path d="M32.15 31.4937C32.1008 33.7031 31.7311 35.7427 31.1143 37.488C31.8173 37.8911 32.4821 38.3651 33.1011 38.9077C35.069 36.9023 36.1943 34.3052 36.3153 31.4937H32.15Z" fill="#871ABB"/>
<path d="M30.9321 23.9907C31.6611 25.8411 32.096 28.0686 32.15 30.4938H36.3138C36.184 27.5507 34.9155 24.778 32.7683 22.7549C32.1913 23.2238 31.5775 23.6366 30.9321 23.9907Z" fill="#871ABB"/>
<path d="M25.0002 11.7876L7.44409 21.6216C7.05566 21.8396 6.63348 21.9536 6.19995 21.974V46.6548H43.7903V21.9644C43.3608 21.9397 42.9362 21.8334 42.5569 21.6216L25.0002 11.7876ZM37.3406 30.9937C37.3395 34.4164 35.9744 37.5908 33.4974 39.9375C33.4967 39.9382 33.4965 39.9392 33.4958 39.9399C33.4952 39.9407 33.4941 39.9409 33.4935 39.9417C33.4874 39.9473 33.4824 39.9537 33.4763 39.9595C31.1835 42.1357 28.1733 43.3354 25.0005 43.3372C24.9993 43.3372 24.9981 43.3374 24.9968 43.3374C24.9965 43.3374 24.9962 43.3374 24.9958 43.3374C24.9952 43.3374 24.9945 43.3374 24.9939 43.3374C21.8225 43.3374 18.8118 42.1372 16.5159 39.9575C16.5108 39.9528 16.5065 39.9473 16.5015 39.9425C16.5004 39.9414 16.4989 39.9412 16.4978 39.9399C16.4968 39.9388 16.4966 39.9374 16.4955 39.9363C14.0194 37.5914 12.6544 34.4167 12.6533 30.9946C12.6533 30.9943 12.6533 30.995 12.6533 30.9946C12.6533 30.9944 12.6532 30.9932 12.6532 30.993C12.6532 30.9922 12.6531 30.9915 12.6531 30.9907C12.6531 27.436 14.1877 24.0552 16.864 21.7134C19.1091 19.7378 21.9963 18.6499 24.9939 18.6499H24.9958H24.9968C24.998 18.6499 24.9991 18.6501 25.0002 18.6501C27.9988 18.6519 30.8861 19.7393 33.1306 21.7144C35.8059 24.0552 37.3406 27.436 37.3406 30.9907C37.3406 30.9915 37.3406 30.9928 37.3406 30.9937Z" fill="#871ABB"/>
<path d="M17.8434 30.4938C17.8975 28.0687 18.3324 25.8412 19.0612 23.991C18.416 23.6366 17.8022 23.224 17.2252 22.7549C15.0777 24.7787 13.8095 27.551 13.6797 30.4938H17.8434Z" fill="#871ABB"/>
<path d="M32.3865 3.26807V4.73779C32.3865 4.89209 32.5125 5.01807 32.6667 5.01807H33.2552C33.2604 5.01782 33.2646 5.01514 33.2698 5.01514H41.45C41.4551 5.01514 41.4594 5.01782 41.4645 5.01807H42.0466C42.2009 5.01807 42.3264 4.89209 42.3264 4.73779V3.26807C42.3264 3.1167 42.2034 2.99854 42.0466 2.99854H32.6667C32.5095 2.99854 32.3865 3.1167 32.3865 3.26807Z" fill="#871ABB"/>
<path d="M34.2797 10.4276L40.95 14.1626V6.01807H33.7698V10.1418L34.2797 10.4276Z" fill="#871ABB"/>
</svg>
