<svg width="40" height="38" viewBox="0 0 40 38" fill="none" xmlns="http://www.w3.org/2000/svg">
<path d="M34.1212 16.8179C33.6363 16.8179 33.2727 17.2421 33.2727 17.6664C33.2727 18.1512 33.6969 18.5148 34.1212 18.5148C34.606 18.5148 34.9697 18.1512 34.9697 17.6664C35.0303 17.1815 34.606 16.8179 34.1212 16.8179Z" fill="white"/>
<path d="M34.909 9.36355H19.9393L28.1211 1.12112C28.3635 0.878699 28.3635 0.515063 28.1211 0.272639C27.8787 0.0302142 27.5151 0.0302142 27.2726 0.272639L18.4847 9.06052L12.7272 3.36355C12.4847 3.12112 12.1211 3.12112 11.8787 3.36355C11.6363 3.60597 11.6363 3.96961 11.8787 4.21203L17.0302 9.36355H5.09081C2.60596 9.36355 0.605957 11.3635 0.605957 13.8484V30.9999C0.605957 32.9999 1.93929 34.6969 3.75747 35.3029V37.3636C3.75747 37.6666 4.0605 37.9696 4.36353 37.9696H10.4847C10.8484 37.9696 11.0908 37.6666 11.0908 37.3636V35.4848H28.909V37.3636C28.909 37.6666 29.212 37.9696 29.5151 37.9696H35.6363C35.9393 37.9696 36.2423 37.6666 36.2423 37.3636V35.3029C38.0605 34.7575 39.4544 33.0605 39.4544 30.9999V13.7878C39.3938 11.3635 37.3938 9.36355 34.909 9.36355ZM29.212 28.8181C29.212 30.7575 27.6363 32.2726 25.7575 32.2726H7.9999C6.0605 32.2726 4.54535 30.6969 4.54535 28.8181V15.9696C4.54535 14.0302 6.12111 12.5151 7.9999 12.5151H25.6969C27.6363 12.5151 29.1514 14.0908 29.1514 15.9696V28.8181H29.212ZM34.6666 29.1817H33.6363C33.3332 29.1817 33.0302 28.9393 33.0302 28.5757C33.0302 28.2726 33.3332 27.9696 33.6363 27.9696H34.6666C35.0302 27.9696 35.2726 28.2726 35.2726 28.5757C35.2726 28.8787 34.9696 29.1817 34.6666 29.1817ZM34.1211 25.7878C32.9696 25.7878 32.0605 24.8787 32.0605 23.7272C32.0605 22.5757 32.9696 21.6666 34.1211 21.6666C35.2726 21.6666 36.1817 22.5757 36.1817 23.7272C36.2423 24.8787 35.2726 25.7878 34.1211 25.7878ZM34.1211 19.7878C32.9696 19.7878 32.0605 18.8787 32.0605 17.7272C32.0605 16.5757 32.9696 15.6666 34.1211 15.6666C35.2726 15.6666 36.1817 16.6363 36.1817 17.7272C36.2423 18.8181 35.2726 19.7878 34.1211 19.7878Z" fill="white"/>
<path d="M34.1212 22.8179C33.6363 22.8179 33.2727 23.2421 33.2727 23.6664C33.2727 24.1512 33.6969 24.5148 34.1212 24.5148C34.606 24.5148 34.9697 24.0906 34.9697 23.6664C35.0303 23.2421 34.606 22.8179 34.1212 22.8179Z" fill="white"/>
<path d="M20.9089 22.8787L13.5756 28.0303C13.3938 28.1515 13.0907 28.1515 12.9695 28.0909C12.7877 27.9697 12.6665 27.7878 12.6665 27.5454V17.2424C12.6665 17 12.7877 16.8181 12.9695 16.6969C13.1514 16.5757 13.3938 16.6363 13.5756 16.7575L20.9089 21.9091C21.0907 22.0303 21.1514 22.2121 21.1514 22.3939C21.1514 22.5757 21.0301 22.7575 20.9089 22.8787Z" fill="white"/>
</svg>
