<svg width="198" height="32" viewBox="0 0 198 32" fill="none" xmlns="http://www.w3.org/2000/svg">
<path fill-rule="evenodd" clip-rule="evenodd" d="M3.62876 31.5157C2.95541 32.0342 2.03646 32.1324 1.26383 31.7681C0.491195 31.4037 0 30.6408 0 29.8044V2.19496C0 1.3586 0.490449 0.595681 1.26383 0.231317C2.03646 -0.133046 2.95466 -0.0348756 3.62801 0.48367L21.5479 14.2844C22.0846 14.6982 22.3982 15.3288 22.3982 15.9957C22.3982 16.6633 22.0854 17.2939 21.5479 17.7077L3.62876 31.5157Z" fill="url(#paint0_linear_7084_946)"/>
<path fill-rule="evenodd" clip-rule="evenodd" d="M29.1138 32H26.8743C25.6373 32 24.6348 31.0233 24.6348 29.8182V2.18182C24.6348 0.976727 25.6373 0 26.8743 0H29.1138C30.3508 0 31.3533 0.976727 31.3533 2.18182V29.8182C31.3533 31.0233 30.3508 32 29.1138 32Z" fill="url(#paint1_linear_7084_946)"/>
<path d="M51.6821 29.6523C51.3913 29.6523 51.2195 29.5069 51.1666 29.2161L45.7736 2.40953L45.7339 2.25091C45.7339 2.01299 45.8793 1.89402 46.1701 1.89402H51.9994C52.3166 1.89402 52.4885 2.03942 52.5149 2.33022L54.2993 15.3766C54.3258 15.4559 54.3654 15.4956 54.4183 15.4956C54.4712 15.4956 54.5108 15.4559 54.5373 15.3766L56.3217 2.33022C56.3482 2.03942 56.52 1.89402 56.8372 1.89402H61.4768C61.7941 1.89402 61.9659 2.03942 61.9923 2.33022L63.9751 15.3766C64.0015 15.4559 64.0412 15.4956 64.094 15.4956C64.1469 15.4956 64.1734 15.4559 64.1734 15.3766L65.7992 2.33022C65.8256 2.03942 65.9842 1.89402 66.2751 1.89402H71.9853C72.329 1.89402 72.4744 2.06586 72.4215 2.40953L67.3061 29.2161C67.2796 29.5069 67.1078 29.6523 66.7906 29.6523H61.7148C61.3975 29.6523 61.2257 29.5069 61.1993 29.2161L59.2165 15.6542C59.1901 15.5749 59.1372 15.5352 59.0579 15.5352C59.005 15.5352 58.9786 15.5749 58.9786 15.6542L57.2338 29.2161C57.2074 29.5069 57.0487 29.6523 56.7579 29.6523H51.6821ZM81.7998 29.9695C79.2355 29.9695 77.1867 29.2293 75.6534 27.7489C74.1465 26.2684 73.3931 24.2725 73.3931 21.761V9.7853C73.3931 7.30027 74.1465 5.31754 75.6534 3.8371C77.1867 2.33022 79.2355 1.57679 81.7998 1.57679C84.3377 1.57679 86.3733 2.33022 87.9067 3.8371C89.4664 5.31754 90.2463 7.30027 90.2463 9.7853V21.761C90.2463 24.2725 89.4664 26.2684 87.9067 27.7489C86.3733 29.2293 84.3377 29.9695 81.7998 29.9695ZM81.7998 24.3386C82.3814 24.3386 82.8309 24.1403 83.1481 23.7437C83.4918 23.3208 83.6636 22.7524 83.6636 22.0386V9.50772C83.6636 8.79393 83.4918 8.23877 83.1481 7.84222C82.8309 7.41924 82.3814 7.20774 81.7998 7.20774C81.2182 7.20774 80.7688 7.41924 80.4516 7.84222C80.1343 8.23877 79.9757 8.79393 79.9757 9.50772V22.0386C79.9757 22.7524 80.1343 23.3208 80.4516 23.7437C80.7688 24.1403 81.2182 24.3386 81.7998 24.3386ZM97.8814 29.6523C97.5906 29.6523 97.4187 29.5069 97.3658 29.2161L91.9728 2.40953L91.9332 2.25091C91.9332 2.01299 92.0786 1.89402 92.3694 1.89402H98.1986C98.5158 1.89402 98.6877 2.03942 98.7141 2.33022L100.499 15.3766C100.525 15.4559 100.565 15.4956 100.618 15.4956C100.67 15.4956 100.71 15.4559 100.736 15.3766L102.521 2.33022C102.547 2.03942 102.719 1.89402 103.036 1.89402H107.676C107.993 1.89402 108.165 2.03942 108.192 2.33022L110.174 15.3766C110.201 15.4559 110.24 15.4956 110.293 15.4956C110.346 15.4956 110.373 15.4559 110.373 15.3766L111.998 2.33022C112.025 2.03942 112.183 1.89402 112.474 1.89402H118.185C118.528 1.89402 118.674 2.06586 118.621 2.40953L113.505 29.2161C113.479 29.5069 113.307 29.6523 112.99 29.6523H107.914C107.597 29.6523 107.425 29.5069 107.398 29.2161L105.416 15.6542C105.389 15.5749 105.336 15.5352 105.257 15.5352C105.204 15.5352 105.178 15.5749 105.178 15.6542L103.433 29.2161C103.407 29.5069 103.248 29.6523 102.957 29.6523H97.8814ZM137.22 1.89402C137.352 1.89402 137.458 1.9469 137.537 2.05264C137.643 2.13195 137.696 2.2377 137.696 2.36988V7.04913C137.696 7.18131 137.643 7.30027 137.537 7.40602C137.458 7.48533 137.352 7.52498 137.22 7.52498H132.303C132.171 7.52498 132.105 7.59107 132.105 7.72326V29.1764C132.105 29.3086 132.052 29.4276 131.946 29.5333C131.867 29.6126 131.761 29.6523 131.629 29.6523H125.998C125.866 29.6523 125.747 29.6126 125.641 29.5333C125.562 29.4276 125.522 29.3086 125.522 29.1764V7.72326C125.522 7.59107 125.456 7.52498 125.324 7.52498H120.605C120.473 7.52498 120.354 7.48533 120.248 7.40602C120.168 7.30027 120.129 7.18131 120.129 7.04913V2.36988C120.129 2.2377 120.168 2.13195 120.248 2.05264C120.354 1.9469 120.473 1.89402 120.605 1.89402H137.22ZM148.06 29.9695C146.421 29.9695 144.98 29.6258 143.737 28.9385C142.495 28.2247 141.53 27.2333 140.843 25.9644C140.155 24.6954 139.811 23.2282 139.811 21.5627V2.36988C139.811 2.2377 139.851 2.13195 139.93 2.05264C140.036 1.9469 140.155 1.89402 140.287 1.89402H145.918C146.05 1.89402 146.156 1.9469 146.236 2.05264C146.341 2.13195 146.394 2.2377 146.394 2.36988V22.1972C146.394 22.8317 146.54 23.3472 146.83 23.7437C147.148 24.1403 147.557 24.3386 148.06 24.3386C148.562 24.3386 148.958 24.1403 149.249 23.7437C149.567 23.3472 149.725 22.8317 149.725 22.1972V2.36988C149.725 2.2377 149.765 2.13195 149.844 2.05264C149.95 1.9469 150.069 1.89402 150.201 1.89402H155.832C155.964 1.89402 156.07 1.9469 156.149 2.05264C156.255 2.13195 156.308 2.2377 156.308 2.36988V21.5627C156.308 23.2282 155.964 24.6954 155.277 25.9644C154.589 27.2333 153.625 28.2247 152.382 28.9385C151.14 29.6258 149.699 29.9695 148.06 29.9695ZM175.641 21.9196C175.641 24.4046 174.861 26.3213 173.301 27.6695C171.742 28.9914 169.759 29.6523 167.353 29.6523H159.343C159.211 29.6523 159.092 29.6126 158.986 29.5333C158.907 29.4276 158.867 29.3086 158.867 29.1764V2.36988C158.867 2.2377 158.907 2.13195 158.986 2.05264C159.092 1.9469 159.211 1.89402 159.343 1.89402H166.322C169.072 1.89402 171.226 2.54172 172.786 3.8371C174.372 5.10605 175.165 7.02269 175.165 9.58702C175.165 12.1249 174.332 13.9887 172.667 15.1783C172.535 15.2576 172.522 15.3369 172.627 15.4163C174.636 16.8967 175.641 19.0645 175.641 21.9196ZM165.648 7.52498C165.516 7.52498 165.45 7.59107 165.45 7.72326V12.7991C165.45 12.9312 165.516 12.9973 165.648 12.9973H166.401C167.142 12.9973 167.71 12.7726 168.107 12.3232C168.503 11.8473 168.701 11.1732 168.701 10.3008C168.701 9.40197 168.503 8.71462 168.107 8.23877C167.71 7.76291 167.142 7.52498 166.401 7.52498H165.648ZM166.838 23.9817C167.525 23.9817 168.067 23.7173 168.464 23.1886C168.86 22.6598 169.058 21.9064 169.058 20.9283C169.058 19.9501 168.86 19.1702 168.464 18.5886C168.067 18.007 167.538 17.7162 166.877 17.7162H165.648C165.516 17.7162 165.45 17.7823 165.45 17.9145V23.7834C165.45 23.9156 165.516 23.9817 165.648 23.9817H166.838ZM192.954 7.04913C192.954 7.18131 192.901 7.30027 192.795 7.40602C192.716 7.48533 192.61 7.52498 192.478 7.52498H184.507C184.375 7.52498 184.309 7.59107 184.309 7.72326V12.7197C184.309 12.8519 184.375 12.918 184.507 12.918H188.869C189.001 12.918 189.107 12.9709 189.186 13.0766C189.292 13.1559 189.345 13.2617 189.345 13.3939V18.1128C189.345 18.245 189.292 18.3639 189.186 18.4697C189.107 18.549 189.001 18.5886 188.869 18.5886H184.507C184.375 18.5886 184.309 18.6547 184.309 18.7869V23.823C184.309 23.9552 184.375 24.0213 184.507 24.0213H192.478C192.61 24.0213 192.716 24.0742 192.795 24.1799C192.901 24.2592 192.954 24.365 192.954 24.4972V29.1764C192.954 29.3086 192.901 29.4276 192.795 29.5333C192.716 29.6126 192.61 29.6523 192.478 29.6523H178.202C178.07 29.6523 177.951 29.6126 177.845 29.5333C177.766 29.4276 177.726 29.3086 177.726 29.1764V2.36988C177.726 2.2377 177.766 2.13195 177.845 2.05264C177.951 1.9469 178.07 1.89402 178.202 1.89402H192.478C192.61 1.89402 192.716 1.9469 192.795 2.05264C192.901 2.13195 192.954 2.2377 192.954 2.36988V7.04913Z" fill="white"/>
<defs>
<linearGradient id="paint0_linear_7084_946" x1="0" y1="15.9997" x2="18.5803" y2="15.9997" gradientUnits="userSpaceOnUse">
<stop stop-color="#A80D65"/>
<stop offset="1" stop-color="#871ABB"/>
</linearGradient>
<linearGradient id="paint1_linear_7084_946" x1="24.6348" y1="16" x2="30.2081" y2="16" gradientUnits="userSpaceOnUse">
<stop stop-color="#A80D65"/>
<stop offset="1" stop-color="#871ABB"/>
</linearGradient>
</defs>
</svg>
